<?xml version="1.0" encoding="UTF-8"?>
<svg id="Layer_2" data-name="Layer 2" xmlns="http://www.w3.org/2000/svg" xmlns:xlink="http://www.w3.org/1999/xlink" viewBox="0 0 567.61 203.3">
  <defs>
    <style>
      .cls-1, .cls-2 {
        letter-spacing: .34em;
      }

      .cls-2 {
        font-family: Montserrat-ExtraBold, Montserrat;
        font-weight: 700;
      }

      .cls-2, .cls-3 {
        fill: #fff;
        font-size: 51.47px;
      }

      .cls-4 {
        letter-spacing: .31em;
      }

      .cls-5 {
        fill: url(#radial-gradient);
      }

      .cls-3 {
        font-family: Montserrat-Regular, Montserrat;
      }
    </style>
    <radialGradient id="radial-gradient" cx="377.19" cy="-6.22" fx="352.89" fy="27.01" r="206.3" gradientTransform="translate(-.58 3.47) rotate(-.2) skewX(-.4)" gradientUnits="userSpaceOnUse">
      <stop offset="0" stop-color="#54bc80"/>
      <stop offset=".49" stop-color="#0da879"/>
    </radialGradient>
  </defs>
  <g id="Layer_1-2" data-name="Layer 1">
    <g>
      <path class="cls-5" d="m147.37,67.63l3.35,3.68,3.71-3.37-3.35-3.68-3.71,3.37Zm22.94-10.85l5.91,6.5,6.54-5.95-5.91-6.5-6.54,5.95Zm9.82-16.83l5.04,5.55,5.58-5.08-5.04-5.55-5.58,5.08Zm-8.72,29.39l3.98,4.38,4.41-4.01-3.98-4.38-4.41,4.01Zm38.14-40.53l-7.44-8.18-8.24,7.5,7.44,8.18,8.24-7.5Zm-53.35,24.63l4.73,5.21,5.24-4.77-4.73-5.21-5.24,4.77Zm32.83,23.22l5.28,5.81,5.85-5.32-5.28-5.81-5.85,5.32Zm-2.65-25.72l8.75,9.62,9.69-8.81-8.75-9.62-9.69,8.81Zm42.92,22.03l5.28,5.81,5.85-5.32-5.28-5.81-5.85,5.32Zm-48.8-41.62l8.24-7.5-7.44-8.18-8.24,7.5,7.44,8.18Zm209.74,45.16c-.8-7.73-1.72-11.5-1.72-11.5C366.86-30.66,200.62,7.52,200.62,7.52c1.45,2.56,2.91,5.07,4.36,7.51l4.63-4.21,5.02,5.52,8.81-8.01,8.87,9.75-9.82,8.93-7.99-8.79-4.87,4.43c2.81,4.48,5.61,8.76,8.41,12.83l5.3-4.82,3.65,4.01,6.49-5.9,7.44,8.18-6.49,5.9,2.18,2.4-6.81,6.19c3.54,4.48,7.07,8.64,10.58,12.52l10.64-9.68,11.31,12.44-10.17,9.25c75.85,70.98,134.86,9.91,134.86,9.91,0,0-46.89,2.3-118.27-45.12-.06-.04-.08-.08-.08-.08.03.03.04.07.08.08,10.33,2.37,68.09,34.82,121.48,35.74m-128.88-35.77l4.18,4.59-4.62,4.2-4.18-4.59,4.62-4.2Zm-13.64-1.45l6.04,6.64-6.69,6.08-6.04-6.64,6.69-6.08Zm-8.95-26.9l5.28,5.81-5.85,5.32-5.28-5.81,5.85-5.32Zm-10.96,37.77l-8.72-9.59-9.65,8.78,8.72,9.59,9.65-8.78Zm-21.14,21.08l8.72,9.59,9.65-8.78-8.72-9.59-9.65,8.78Z"/>
      <g>
        <text class="cls-3" transform="translate(0 189.97)"><tspan class="cls-1" x="0" y="0">DIGI</tspan><tspan class="cls-4" x="183.37" y="0">T</tspan><tspan class="cls-1" x="228.61" y="0">AL</tspan></text>
        <text class="cls-2" transform="translate(358.15 189.81)"><tspan x="0" y="0">LEAF</tspan></text>
      </g>
    </g>
  </g>
</svg>